<svg xmlns="http://www.w3.org/2000/svg" width="339.759" height="168.675" viewBox="0 0 339.759 168.675"><path d="M102.477 48.718v-.306c0-10.104-2.997-18.457-8.974-24.431-7.041-7.047-17.395-10.805-31.023-10.805H13.24v107.396h23.865v-34.76h18.481l22.977 34.762h27.568L79.724 82.125c13.63-5.059 22.753-16.102 22.753-33.407zM78.61 49.945c0 9.033-6.175 15.115-17.661 15.115H37.105V34.968h23.384c11.487 0 18.122 4.561 18.122 14.668v.309zm210.257-36.768h-44.233v107.396h24.903V87.888h17.036c24.037 0 43.666-12.677 43.666-37.485v-.308c0-21.899-15.796-36.918-41.372-36.918zm17.506 37.688c0 9.186-7.242 16.789-19.034 16.789h-17.802V34.968h17.342c11.792 0 19.494 5.018 19.494 15.59v.307zM186.007 13.177h-23.865v35.28h-32.687v20.234h32.687v88.199h23.865V68.691h32.685V48.457h-32.685z"/></svg>