<?xml version="1.0" encoding="utf-8"?>
<!-- Generator: Adobe Illustrator 17.0.0, SVG Export Plug-In . SVG Version: 6.00 Build 0)  -->
<!DOCTYPE svg PUBLIC "-//W3C//DTD SVG 1.1//EN" "http://www.w3.org/Graphics/SVG/1.1/DTD/svg11.dtd">
<svg version="1.1" id="Layer_1" xmlns="http://www.w3.org/2000/svg" xmlns:xlink="http://www.w3.org/1999/xlink" x="0px" y="0px"
	 width="339.759px" height="168.675px" viewBox="0 0 339.759 168.675" enable-background="new 0 0 339.759 168.675"
	 xml:space="preserve">
<g>
	<path d="M102.477,48.718v-0.306c0-10.104-2.997-18.457-8.974-24.431c-7.041-7.047-17.395-10.805-31.023-10.805h-49.24v107.396
		h23.865V85.812h18.178h0.303l22.977,34.762h27.568L79.724,82.125C93.354,77.066,102.477,66.023,102.477,48.718z M78.61,49.945
		c0,9.033-6.175,15.115-17.661,15.115H37.105V34.968h23.384c11.487,0,18.122,4.561,18.122,14.668V49.945z"/>
	<path d="M288.867,13.177h-44.233v107.396h24.903V87.888h17.036c24.037,0,43.666-12.677,43.666-37.485v-0.308
		C330.239,28.196,314.443,13.177,288.867,13.177z M306.373,50.865c0,9.186-7.242,16.789-19.034,16.789h-17.802V34.968h17.342
		c11.792,0,19.494,5.018,19.494,15.59V50.865z"/>
	<polygon points="186.007,13.177 162.142,13.177 162.142,48.457 129.455,48.457 129.455,68.691 162.142,68.691 162.142,156.89 
		186.007,156.89 186.007,68.691 218.692,68.691 218.692,48.457 186.007,48.457 	"/>
</g>
</svg>
